# xmcd CD database file
#
# Track frame offsets:
#	150
#	20400
#	42422
#	65355
#	120468
#	147398
#	165545
#	181110
#	194385
#	233573
#
# Disc length: 3326 seconds
#
# Revision: 5
# Processed by: cddbd v1.5.1PL2 Copyright (c) Steve Scherf et al.
# Submitted via: CDex 1.51
#
DISCID=7f0cfc0a
DTITLE=Various Artist - Rock Chartbreaker Live 87-94
DYEAR=1193
DGENRE=Blues
TTITLE0=River of Dreams - Billy Joel
TTITLE1=I'll Sleep When I'm Dead - Bon Jovi
TTITLE2=Graceland - Paul Simon
TTITLE3=I'd Do Anything For Love - Meat Loaf
TTITLE4=Livin' On The Edge - Aerosmith
TTITLE5=Hearts On Fire - Bryan Adams
TTITLE6=Streets Of Philadelphia - Bruce Springsteen
TTITLE7=Who'll Stop the Rain - John Fogerty
TTITLE8=Mary Jane's Last Dance - Tom Petty And The Heartbreakers
TTITLE9=Drive - R.E.M.
EXTD=
EXTT0=
EXTT1=
EXTT2=
EXTT3=
EXTT4=
EXTT5=
EXTT6=
EXTT7=
EXTT8=
EXTT9=
PLAYORDER=
